<?xml version="1.0" encoding="UTF-8" standalone="no"?>
<!-- Created with Inkscape (http://www.inkscape.org/) -->

<svg
   width="210mm"
   height="297mm"
   viewBox="0 0 210 297"
   version="1.1"
   id="svg5"
   inkscape:version="1.1.2 (b8e25be8, 2022-02-05)"
   sodipodi:docname="fishing boat.svg"
   xmlns:inkscape="http://www.inkscape.org/namespaces/inkscape"
   xmlns:sodipodi="http://sodipodi.sourceforge.net/DTD/sodipodi-0.dtd"
   xmlns="http://www.w3.org/2000/svg"
   xmlns:svg="http://www.w3.org/2000/svg">
  <sodipodi:namedview
     id="namedview7"
     pagecolor="#ffffff"
     bordercolor="#666666"
     borderopacity="1.0"
     inkscape:pageshadow="2"
     inkscape:pageopacity="0.0"
     inkscape:pagecheckerboard="0"
     inkscape:document-units="mm"
     showgrid="false"
     inkscape:snap-nodes="false"
     inkscape:zoom="0.26200841"
     inkscape:rotation="-4"
     inkscape:cx="733.49468"
     inkscape:cy="891.09602"
     inkscape:window-width="1440"
     inkscape:window-height="683"
     inkscape:window-x="0"
     inkscape:window-y="25"
     inkscape:window-maximized="0"
     inkscape:current-layer="layer1" />
  <defs
     id="defs2" />
  <g
     inkscape:label="Layer 1"
     inkscape:groupmode="layer"
     id="layer1">
    <path
       id="path4037"
       style="fill:#b3b3b3;stroke-width:0.133698"
       d="m 13.272524,105.52918 c -1.773173,0.0274 -3.6610233,0.38431 -5.2361433,1.01344 -6.682412,2.66908 -9.202023,9.93111 -7.61084599,21.93477 0.112098,0.84564 0.58998399,3.46277 1.06227099,5.81585 1.020613,5.08501 1.196439,6.39397 1.085771,8.08871 -0.106625,1.63281 -0.418352,2.90277 -1.362306,5.54846 -0.65703599,1.84152 -0.76529299,2.27988 -0.77790099,3.15129 -0.01285,0.88813 0.02933,1.07881 0.344167,1.55476 0.52065499,0.78709 1.32234199,1.13091 2.97529499,1.27586 0.345289,0.0303 0.561299,0.0521 0.818377,0.0765 -0.04097,0.47771 -0.07619,0.82149 -0.09296,0.87216 -0.03044,0.0919 -0.260071,0.16712 -0.510506,0.16712 -0.6084,0 -1.459494,0.31191 -2.022177,0.74109 -1.13182599,0.86329 -1.50528099,2.91707 -0.801141,4.4055 0.554895,1.17294 1.638801,1.93922 3.031699,2.14333 0.711839,0.10431 0.710549,0.10195 0.841616,1.46728 0.141216,1.47106 0.571238,3.70535 0.931967,4.84262 0.380275,1.1989 0.846277,1.94668 1.450046,2.32614 0.636135,0.3998 1.696962,0.29209 2.244135,-0.2277 0.4793923,-0.45541 0.8591803,-1.17525 1.1492273,-2.20836 1.337432,-0.10988 2.8101,-0.59334 4.70292,-1.54092 2.71969,-1.36153 4.406358,-2.84441 5.240582,-4.60734 0.6825,-1.44233 0.806881,-2.14939 0.800358,-4.54572 -0.0067,-2.46625 -0.169208,-3.52486 -1.139825,-7.42023 -0.782247,-3.13938 -0.984017,-4.37105 -0.871906,-5.32493 0.103117,-0.87737 0.275782,-1.22626 0.606861,-1.22626 0.13813,0 1.053518,0.27466 2.034189,0.61052 1.954184,0.66927 3.376889,0.86944 4.333424,0.60948 0.695919,-0.18916 1.437041,-0.92874 1.65947,-1.65608 0.21152,-0.69165 0.205634,-4.60781 -0.01227,-8.32111 -0.08199,-1.39715 -0.165892,-3.50288 -0.186706,-4.67942 -0.02082,-1.17654 -0.0999,-2.43998 -0.175739,-2.80765 -0.07584,-0.36767 -0.232989,-1.87177 -0.349128,-3.34245 -0.287434,-3.63975 -0.41349,-4.58622 -0.646554,-4.85306 -0.109329,-0.12517 -0.302902,-0.70876 -0.430079,-1.29703 -0.127178,-0.58827 -0.487512,-1.85171 -0.800619,-2.80765 -1.983964,-6.05718 -5.251159,-9.05507 -10.566294,-9.69465 -0.549786,-0.0661 -1.12821,-0.0935 -1.719268,-0.0843 z" />
    <path
       id="path2999"
       style="fill:#949cb3;fill-opacity:1;stroke-width:0.133698"
       d="m 7.7117977,144.93395 c -0.767521,0 -0.800864,0.0156 -1.35395,0.62645 -0.937328,1.03532 -1.400031,2.9771 -1.680883,7.05412 -0.07879,1.14368 -0.168299,2.15456 -0.198719,2.24648 -0.03044,0.0919 -0.260071,0.16712 -0.510506,0.16712 -0.608402,0 -1.459494,0.31191 -2.022177,0.74109 -1.13182699,0.86329 -1.50528099,2.91707 -0.801141,4.4055 0.554895,1.17294 1.638801,1.93922 3.031699,2.14333 0.711839,0.10431 0.710549,0.10195 0.841616,1.46728 0.141216,1.47106 0.571238,3.70535 0.931967,4.84262 0.380275,1.1989 0.846277,1.94668 1.450046,2.32614 0.636135,0.3998 1.696962,0.29209 2.244135,-0.2277 1.3284973,-1.26205 1.8951853,-4.54136 1.8926583,-10.95199 -0.0026,-6.68236 -0.759365,-12.0203 -1.9529783,-13.77686 -0.552353,-0.81287 -0.993415,-1.06358 -1.871767,-1.06358 z" />
    <path
       style="fill:#000000;stroke-width:0.264583"
       id="path2925"
       d="" />
    <path
       id="path2886"
       style="fill:#a05a2c;fill-opacity:1;stroke-width:0.133697"
       d="m 196.77446,131.47876 c -0.6705,-0.0311 -1.33648,0.10108 -1.99973,0.18306 -3.93942,0.59726 -7.83774,1.43509 -11.77166,2.06579 -6.14132,1.02071 -12.36209,1.57916 -18.5892,1.58269 -50.6388,10e-4 -101.277779,10e-6 -151.916581,2.7e-4 -1.093675,-0.12976 -0.288079,6.20046 -0.221437,6.99275 0.269142,3.01528 0.491288,6.0354 0.8283,9.04417 0.219459,1.76265 0.433418,3.54589 1.010043,5.23459 0.323571,0.95361 0.870689,1.84602 1.667043,2.47602 0.532235,0.48109 1.21356,0.77922 1.926344,0.8544 1.023422,0.12004 2.055881,0.104 3.084185,0.1465 0.278224,0.58491 0.522372,1.18782 0.855456,1.74486 0.553147,0.9598 1.436094,1.71123 2.462439,2.12375 1.513472,0.6169 3.154572,0.80177 4.766637,0.97453 v 2.7e-4 c 4.593436,-0.0619 9.18721,-0.12415 13.780782,-0.18619 40.946406,-0.002 81.892759,-5.1e-4 122.839169,-0.001 4.27463,-1.04371 8.28766,-2.99714 11.94845,-5.41607 5.52136,-3.66028 10.29092,-8.32676 14.70256,-13.23842 1.49197,-1.92783 2.79163,-3.99778 3.99578,-6.11509 0.82529,-1.48884 1.63845,-2.99733 2.2047,-4.60709 0.27399,-0.85939 0.4935,-1.8256 0.14493,-2.69694 -0.27854,-0.69504 -1.01133,-1.06387 -1.71821,-1.16281 z" />
    <path
       style="fill:#633807;fill-opacity:1;stroke-width:0.133697"
       d="m 28.876159,164.90219 c -1.745932,-0.18949 -3.537948,-0.38472 -5.144271,-1.14486 -1.015951,-0.50002 -1.830197,-1.36209 -2.319837,-2.37876 -0.222356,-0.43238 -0.411476,-0.88064 -0.62024,-1.31953 -1.160511,-0.0547 -2.333209,-0.007 -3.481131,-0.21202 -0.917473,-0.19508 -1.677881,-0.81578 -2.263309,-1.52348 -0.819471,-1.01315 -1.145898,-2.30617 -1.422854,-3.55247 -0.411163,-2.03703 -0.598379,-4.11073 -0.80099,-6.17636 -0.254018,-2.69124 -0.443232,-5.38838 -0.726902,-8.07679 -0.115436,-1.40354 -0.245815,-2.81829 -0.111687,-4.22512 0.0582,-0.33169 0.07423,-0.74434 0.370818,-0.95908 3.204474,-0.0555 6.425637,-0.007 9.636325,-0.0232 47.765753,-0.003 95.531539,0.006 143.297269,-0.005 6.27754,-0.0521 12.54306,-0.67862 18.72728,-1.74541 3.71504,-0.62317 7.40201,-1.412 11.13143,-1.94877 0.73188,-0.0865 1.50699,-0.27119 2.21831,0.0156 0.60267,0.20558 1.11022,0.70814 1.23137,1.34489 0.21194,0.93952 -0.0744,1.90118 -0.40139,2.77903 -0.69211,1.79254 -1.63602,3.47397 -2.59621,5.13362 -1.06701,1.80868 -2.20486,3.58215 -3.50469,5.23323 -4.41985,4.91604 -9.20057,9.58309 -14.73667,13.23748 -3.6376,2.3929 -7.62011,4.3232 -11.86258,5.35945 -41.05406,0.004 -82.108212,-0.007 -123.162231,0.005 -4.485856,0.0604 -8.972356,0.12171 -13.45781,0.18159 z M 86.76725,159.223 c 22.21176,-0.0732 44.42351,-0.14971 66.63527,-0.22078 h 10.78752 c -0.11906,-0.48543 -0.23813,-0.97086 -0.35719,-1.45629 H 40.355819 c -0.02247,0.48543 -0.04494,0.97086 -0.06741,1.45629 11.463008,0.001 22.926058,-0.003 34.38904,0.002 4.029928,0.073 8.059896,0.14601 12.089798,0.21906 z m -30.424599,-7.17941 h 26.566677 c 0.313332,-0.11579 0.443813,-0.47746 0.583975,-0.75755 0.07776,-0.21053 0.317841,-0.73463 -0.05856,-0.75755 H 21.608841 c -0.295813,0.27765 -0.293886,0.76533 -0.36119,1.14875 -0.05772,0.22657 0.02391,0.43925 0.274441,0.36635 z m 125.374019,0 c 0.41848,-0.0799 0.62784,-0.5404 0.76126,-0.9026 0.0959,-0.21363 0.0881,-0.66047 -0.24147,-0.6125 h -64.62765 c -0.27664,0.28093 -0.31795,0.71753 -0.32557,1.09387 -0.0318,0.24898 0.13801,0.48293 0.39644,0.42123 z M 63.370158,143.58154 H 186.89895 l 0.54431,-1.8987 H 20.056127 l -0.976642,1.89868 h 44.290673 z"
       id="path872"
       sodipodi:nodetypes="cscssssscccccssssccccccccccccccccccccccssccccssccccccccc" />
  </g>
</svg>
